<svg width="120" height="40" viewBox="0 0 120 40" fill="none" xmlns="http://www.w3.org/2000/svg">
<path d="M110.139 0H9.53547C9.16441 0 8.80633 0 8.44083 0C8.1347 0 7.83135 0.00742132 7.52151 0.0129873C6.85008 0.0207494 6.18022 0.0796721 5.51775 0.189244C4.85642 0.302087 4.21592 0.514129 3.61789 0.818201C3.01945 1.12421 2.47261 1.52205 1.99726 1.99726C1.52007 2.4707 1.12227 3.01792 0.819129 3.61789C0.515392 4.21696 0.304862 4.85887 0.19481 5.52146C0.0832182 6.18312 0.0230492 6.85242 0.0148426 7.52337C0.00556599 7.83042 0.00463833 8.13841 0 8.44175V31.5601C0.00463833 31.8709 0.00556599 32.1714 0.0148426 32.4822C0.0230492 33.1531 0.0832182 33.8224 0.19481 34.4841C0.304837 35.1471 0.515693 35.7894 0.820056 36.3886C1.12302 36.9867 1.52089 37.5318 1.99819 38.0027C2.47153 38.4796 3.0184 38.8774 3.61789 39.1809C4.21632 39.4852 4.85707 39.6978 5.51868 39.8117C6.18124 39.9207 6.85103 39.9799 7.52244 39.9889C7.83135 39.9954 8.13563 40 8.44176 40C8.80725 40 9.16997 40 9.5364 40H110.139C110.498 40 110.863 40 111.223 40C111.528 40 111.84 40 112.145 39.9889C112.816 39.9804 113.484 39.9211 114.146 39.8117C114.809 39.697 115.452 39.4844 116.054 39.1809C116.652 38.8768 117.198 38.4788 117.671 38.0018C118.147 37.5291 118.546 36.9844 118.852 36.3877C119.154 35.788 119.363 35.1458 119.471 34.4832C119.583 33.8214 119.645 33.1523 119.657 32.4813C119.657 32.1705 119.657 31.8699 119.657 31.5592C119.664 31.1955 119.664 30.8347 119.664 30.4655V9.5364C119.664 9.16997 119.664 8.80725 119.657 8.44454C119.657 8.13748 119.657 7.83042 119.657 7.52337C119.645 6.85238 119.583 6.18323 119.471 5.52146C119.363 4.85924 119.154 4.21738 118.852 3.61789C118.234 2.41462 117.255 1.43545 116.051 0.818201C115.45 0.515473 114.806 0.304115 114.143 0.191099C113.482 0.0811904 112.815 0.0222642 112.145 0.0148426C111.84 0.00927665 111.528 0 111.227 0C110.868 0 110.503 0 110.143 0H110.139Z" fill="#A6A6A6"/>
<path d="M8.44368 39.129C8.1394 39.129 7.84162 39.129 7.5392 39.1178C6.91294 39.1096 6.28815 39.055 5.66996 38.9546C5.0935 38.8552 4.53509 38.6704 4.01315 38.4063C3.4957 38.1434 3.02397 37.7988 2.61608 37.3859C2.202 36.979 1.8573 36.507 1.59565 35.9888C1.33111 35.4672 1.14809 34.9081 1.05297 34.3311C0.950258 33.7112 0.894748 33.0845 0.886913 32.4563C0.880419 32.2457 0.87207 31.5434 0.87207 31.5434V8.44458C0.87207 8.44458 0.881347 7.75347 0.886913 7.55031C0.894414 6.92301 0.949615 6.2972 1.05204 5.67828C1.14751 5.0997 1.33083 4.5391 1.59565 4.0159C1.85625 3.4979 2.19897 3.02548 2.61051 2.61698C3.02186 2.20563 3.49515 1.86131 4.01315 1.59655C4.53384 1.33357 5.09109 1.15032 5.66624 1.05294C6.28644 0.95052 6.91344 0.894704 7.54198 0.885961L8.44368 0.873901H111.22L112.133 0.886889C112.754 0.894361 113.374 0.948628 113.988 1.04923C114.569 1.14813 115.131 1.3329 115.658 1.59748C116.694 2.13294 117.538 2.97919 118.07 4.01776C118.33 4.53741 118.511 5.0935 118.605 5.66715C118.709 6.29135 118.767 6.9223 118.778 7.55495C118.778 7.83788 118.778 8.14216 118.778 8.4455C118.787 8.81657 118.787 9.17743 118.787 9.53737V30.4674C118.787 30.831 118.787 31.1854 118.778 31.5425C118.778 31.8681 118.778 32.1659 118.778 32.4702C118.767 33.092 118.71 33.7121 118.608 34.3255C118.514 34.9065 118.332 35.4697 118.068 35.9953C117.804 36.5078 117.461 36.9755 117.052 37.3812C116.643 37.7943 116.17 38.1389 115.652 38.4017C115.126 38.6679 114.563 38.8534 113.982 38.9518C113.364 39.0528 112.739 39.1074 112.113 39.115C111.82 39.1215 111.514 39.1262 111.216 39.1262H110.132L8.44368 39.129Z" fill="black"/>
<path d="M24.7213 20.3065C24.732 19.4735 24.9532 18.6568 25.3644 17.9323C25.7755 17.2077 26.3633 16.599 27.0729 16.1626C26.622 15.5188 26.0272 14.989 25.3357 14.6152C24.6443 14.2415 23.8752 14.0341 23.0895 14.0095C21.4132 13.8333 19.7889 15.0123 18.9345 15.0123C18.0644 15.0123 16.7489 14.0272 15.3333 14.0559C14.4175 14.0856 13.5249 14.352 12.7426 14.8292C11.9603 15.3063 11.315 15.9779 10.8694 16.7786C8.93892 20.1182 10.3787 25.0348 12.2284 27.7334C13.1561 29.0563 14.235 30.534 15.6497 30.4812C17.0337 30.4236 17.5514 29.598 19.2221 29.598C20.878 29.598 21.3631 30.4812 22.8066 30.4478C24.2909 30.4236 25.2278 29.1194 26.1211 27.7835C26.7859 26.8411 27.2975 25.7994 27.6369 24.6972C26.7735 24.3325 26.0366 23.7216 25.5181 22.9408C24.9996 22.16 24.7225 21.2438 24.7213 20.3065Z" fill="white"/>
<path d="M21.996 12.2331C22.8064 11.2608 23.2057 10.0108 23.1092 8.74878C21.8717 8.87888 20.7286 9.47044 19.9078 10.4056C19.5061 10.8621 19.1983 11.3934 19.002 11.969C18.8057 12.5445 18.7249 13.1532 18.764 13.76C19.3831 13.7667 19.9957 13.6327 20.5556 13.3682C21.1154 13.1037 21.6079 12.7156 21.996 12.2331Z" fill="white"/>
<path d="M42.4556 27.1332H37.731L36.5964 30.483H34.5955L39.0705 18.0885H41.1494L45.6245 30.483H43.5892L42.4556 27.1332ZM38.2208 25.5877H41.9658L40.1197 20.1498H40.0678L38.2208 25.5877Z" fill="white"/>
<path d="M55.2879 25.9652C55.2879 28.7733 53.7851 30.5776 51.5169 30.5776C50.9427 30.6083 50.3715 30.4767 49.8686 30.1978C49.3658 29.9188 48.9516 29.5039 48.6736 29.0006H48.631V33.4766H46.7756V21.4466H48.5707V22.9494H48.6022C48.8925 22.4481 49.3131 22.0349 49.8195 21.7536C50.3259 21.4723 50.899 21.3335 51.478 21.352C53.7758 21.352 55.2879 23.1628 55.2879 25.9652ZM53.3815 25.9652C53.3815 24.1359 52.4362 22.9327 50.9937 22.9327C49.5763 22.9327 48.6235 24.1609 48.6235 25.9652C48.6235 27.7863 49.5772 29.0052 50.9937 29.0052C52.4362 29.0071 53.3815 27.8113 53.3815 25.9652Z" fill="white"/>
<path d="M65.2344 25.9652C65.2344 28.7733 63.7316 30.5776 61.4634 30.5776C60.8892 30.6083 60.318 30.4767 59.8151 30.1978C59.3122 29.9188 58.8981 29.5039 58.6201 29.0006H58.5812V33.4766H56.7258V21.4466H58.5209V22.9494H58.5552C58.8454 22.4481 59.2661 22.0349 59.7725 21.7536C60.2789 21.4723 60.852 21.3335 61.431 21.352C63.7223 21.352 65.2344 23.1628 65.2344 25.9652ZM63.328 25.9652C63.328 24.1359 62.3827 22.9327 60.9402 22.9327C59.5227 22.9327 58.57 24.1609 58.57 25.9652C58.57 27.7863 59.5237 29.0052 60.9402 29.0052C62.3827 29.0052 63.328 27.8113 63.328 25.9652Z" fill="white"/>
<path d="M71.8068 27.0293C71.9441 28.2585 73.138 29.0656 74.7698 29.0656C76.3329 29.0656 77.46 28.2585 77.46 27.1499C77.46 26.188 76.7819 25.6119 75.1752 25.2167L73.5685 24.8299C71.2929 24.2797 70.2363 23.2157 70.2363 21.4903C70.2363 19.352 72.1 17.8826 74.7466 17.8826C77.3654 17.8826 79.1614 19.3511 79.2217 21.4903H77.3469C77.2346 20.2537 76.2123 19.5069 74.7179 19.5069C73.2234 19.5069 72.2011 20.262 72.2011 21.3622C72.2011 22.2389 72.8505 22.7537 74.4516 23.1489L75.8171 23.4838C78.3599 24.0849 79.4165 25.1063 79.4165 26.9162C79.4165 29.2353 77.5695 30.6871 74.6316 30.6871C71.8829 30.6871 70.0276 29.2687 69.907 27.0275L71.8068 27.0293Z" fill="white"/>
<path d="M83.4211 19.3075V21.4458H85.1392V22.9143H83.4211V27.8958C83.4211 28.6695 83.7653 29.0304 84.5204 29.0304C84.7245 29.0269 84.9283 29.0126 85.1308 28.9877V30.4478C84.7911 30.5112 84.4458 30.5398 84.1002 30.5332C82.2708 30.5332 81.5575 29.8458 81.5575 28.0934V22.9143H80.2439V21.4458H81.5575V19.3075H83.4211Z" fill="white"/>
<path d="M86.1346 25.9653C86.1346 23.122 87.8091 21.3353 90.4205 21.3353C93.0318 21.3353 94.7072 23.122 94.7072 25.9653C94.7072 28.8086 93.0495 30.5953 90.4205 30.5953C87.7914 30.5953 86.1346 28.8207 86.1346 25.9653ZM92.8138 25.9653C92.8138 24.0172 91.9205 22.8641 90.4167 22.8641C88.913 22.8641 88.0224 24.0237 88.0224 25.9653C88.0224 27.9236 88.9149 29.0656 90.4186 29.0656C91.9223 29.0656 92.8157 27.9236 92.8157 25.9653H92.8138Z" fill="white"/>
<path d="M96.2362 21.4467H98.0052V22.9847H98.0479C98.1675 22.5043 98.4489 22.0798 98.8448 21.7824C99.2406 21.4851 99.7267 21.3331 100.221 21.352C100.435 21.3514 100.648 21.3748 100.857 21.4216V23.1563C100.587 23.0738 100.305 23.0358 100.022 23.0441C99.7525 23.0331 99.4838 23.0806 99.2345 23.1833C98.9851 23.286 98.7608 23.4414 98.5772 23.6389C98.3935 23.8364 98.2548 24.0713 98.1704 24.3275C98.0861 24.5836 98.0583 24.855 98.0887 25.123V30.4831H96.2334L96.2362 21.4467Z" fill="white"/>
<path d="M109.405 27.829C109.156 29.4691 107.558 30.5953 105.515 30.5953C102.886 30.5953 101.254 28.8327 101.254 26.008C101.254 23.1832 102.894 21.3353 105.437 21.3353C107.941 21.3353 109.509 23.0524 109.509 25.7881V26.4236H103.127V26.5358C103.097 26.8683 103.139 27.2033 103.249 27.5185C103.359 27.8337 103.535 28.1219 103.764 28.364C103.994 28.606 104.273 28.7964 104.582 28.9225C104.891 29.0486 105.224 29.1075 105.557 29.0952C105.996 29.137 106.436 29.0358 106.812 28.8067C107.188 28.5777 107.48 28.233 107.644 27.8243L109.405 27.829ZM103.135 25.1323H107.653C107.669 24.8333 107.624 24.5341 107.519 24.2535C107.415 23.9729 107.254 23.717 107.046 23.5017C106.837 23.2864 106.587 23.1164 106.31 23.0023C106.033 22.8883 105.736 22.8327 105.437 22.8391C105.135 22.8372 104.835 22.8952 104.556 23.0097C104.276 23.1242 104.022 23.2929 103.808 23.5061C103.594 23.7193 103.424 23.9728 103.309 24.2519C103.193 24.531 103.134 24.8302 103.135 25.1323Z" fill="white"/>
<path d="M37.9879 8.73505C38.3768 8.7071 38.7671 8.76582 39.1305 8.90697C39.494 9.04812 39.8216 9.26818 40.0897 9.55128C40.3578 9.83438 40.5597 10.1735 40.6809 10.544C40.802 10.9146 40.8395 11.3075 40.7904 11.6943C40.7904 13.5969 39.7625 14.6907 37.9879 14.6907H35.8367V8.73505H37.9879ZM36.7616 13.8483H37.884C38.1624 13.8657 38.4411 13.8207 38.6998 13.7166C38.9585 13.6124 39.1907 13.4518 39.3794 13.2464C39.568 13.041 39.7084 12.7961 39.7903 12.5294C39.8722 12.2628 39.8934 11.9813 39.8525 11.7054C39.8908 11.4308 39.8677 11.1512 39.785 10.8866C39.7024 10.622 39.5621 10.3789 39.3744 10.1749C39.1866 9.97096 38.956 9.81108 38.6991 9.7068C38.4423 9.60252 38.1655 9.55641 37.8887 9.5718H36.7662L36.7616 13.8483Z" fill="white"/>
<path d="M41.8349 12.441C41.8 12.1419 41.8288 11.8389 41.9194 11.5518C42.01 11.2647 42.1603 11 42.3604 10.7751C42.5606 10.5502 42.8061 10.3703 43.0808 10.247C43.3555 10.1238 43.6531 10.0601 43.9542 10.0601C44.2552 10.0601 44.5529 10.1238 44.8276 10.247C45.1023 10.3703 45.3478 10.5502 45.5479 10.7751C45.7481 11 45.8984 11.2647 45.989 11.5518C46.0795 11.8389 46.1083 12.1419 46.0734 12.441C46.1083 12.74 46.0795 13.043 45.989 13.3302C45.8984 13.6173 45.7481 13.882 45.5479 14.1068C45.3478 14.3317 45.1023 14.5117 44.8276 14.6349C44.5529 14.7582 44.2552 14.8219 43.9542 14.8219C43.6531 14.8219 43.3555 14.7582 43.0808 14.6349C42.8061 14.5117 42.5606 14.3317 42.3604 14.1068C42.1603 13.882 42.01 13.6173 41.9194 13.3302C41.8288 13.043 41.8 12.74 41.8349 12.441ZM45.1615 12.441C45.1615 11.4669 44.7237 10.8973 43.9556 10.8973C43.1875 10.8973 42.7496 11.4669 42.7496 12.441C42.7496 13.415 43.1838 13.9883 43.9556 13.9883C44.7274 13.9883 45.1615 13.4187 45.1615 12.441Z" fill="white"/>
<path d="M51.708 14.6896H50.7877L49.8601 11.3797H49.7896L48.8619 14.6896H47.9482L46.7097 10.1951H47.6096L48.4148 13.6274H48.4806L49.4083 10.1951H50.259L51.1866 13.6274H51.2571L52.0586 10.1951H52.9455L51.708 14.6896Z" fill="white"/>
<path d="M53.9846 10.1933H54.8381V10.9076H54.9039C55.0164 10.6511 55.2061 10.4361 55.4465 10.2926C55.687 10.1491 55.9662 10.0842 56.2453 10.107C56.4638 10.0906 56.6832 10.1236 56.8873 10.2035C57.0913 10.2833 57.2748 10.408 57.4242 10.5683C57.5735 10.7286 57.6849 10.9205 57.7502 11.1297C57.8154 11.3388 57.8328 11.56 57.801 11.7768V14.686H56.9142V11.9957C56.9142 11.2731 56.6006 10.9141 55.9448 10.9141C55.7963 10.9071 55.648 10.9323 55.5101 10.988C55.3723 11.0437 55.2481 11.1286 55.1461 11.2368C55.0442 11.345 54.9668 11.474 54.9194 11.615C54.872 11.7559 54.8556 11.9054 54.8715 12.0532V14.6822H53.9846V10.1933Z" fill="white"/>
<path d="M59.2148 8.44092H60.1017V14.6897H59.2148V8.44092Z" fill="white"/>
<path d="M61.3354 12.441C61.3012 12.1422 61.3304 11.8396 61.4213 11.5529C61.5122 11.2663 61.6626 11.0021 61.8628 10.7776C62.0629 10.5532 62.3083 10.3736 62.5827 10.2506C62.8571 10.1277 63.1544 10.0641 63.4552 10.0641C63.7559 10.0641 64.0532 10.1277 64.3276 10.2506C64.6021 10.3736 64.8474 10.5532 65.0476 10.7776C65.2477 11.0021 65.3982 11.2663 65.489 11.5529C65.5799 11.8396 65.6092 12.1422 65.5749 12.441C65.6092 12.7398 65.5799 13.0424 65.489 13.3291C65.3982 13.6157 65.2477 13.8799 65.0476 14.1044C64.8474 14.3288 64.6021 14.5084 64.3276 14.6314C64.0532 14.7543 63.7559 14.8179 63.4552 14.8179C63.1544 14.8179 62.8571 14.7543 62.5827 14.6314C62.3083 14.5084 62.0629 14.3288 61.8628 14.1044C61.6626 13.8799 61.5122 13.6157 61.4213 13.3291C61.3304 13.0424 61.3012 12.7398 61.3354 12.441ZM64.6621 12.441C64.6621 11.4669 64.2242 10.8974 63.4561 10.8974C62.688 10.8974 62.2501 11.4669 62.2501 12.441C62.2501 13.415 62.6843 13.9883 63.4561 13.9883C64.2279 13.9883 64.6621 13.4188 64.6621 12.441Z" fill="white"/>
<path d="M66.5072 13.4188C66.5072 12.6099 67.1093 12.1433 68.177 12.0774L69.3941 12.0069V11.6191C69.3941 11.1442 69.0806 10.877 68.4739 10.877C67.9785 10.877 67.639 11.0625 67.5369 11.3761H66.6779C66.7707 10.6043 67.4943 10.1089 68.5147 10.1089C69.6418 10.1089 70.2773 10.6655 70.2773 11.6191V14.6897H69.4238V14.058H69.3533C69.2109 14.2845 69.0109 14.4693 68.7738 14.5933C68.5367 14.7173 68.2709 14.7762 68.0035 14.7639C67.8149 14.7835 67.6242 14.7633 67.4438 14.7047C67.2634 14.6461 67.0973 14.5503 66.9561 14.4236C66.815 14.2969 66.702 14.142 66.6243 13.9689C66.5467 13.7959 66.5062 13.6085 66.5054 13.4188H66.5072ZM69.396 13.0347V12.659L68.2985 12.7295C67.6798 12.7713 67.3987 12.9819 67.3987 13.3789C67.3987 13.7759 67.7494 14.019 68.2336 14.019C68.3749 14.0333 68.5177 14.0189 68.6534 13.9769C68.7891 13.9349 68.9149 13.866 69.0235 13.7743C69.132 13.6827 69.221 13.5701 69.2851 13.4434C69.3493 13.3167 69.3873 13.1783 69.3969 13.0366L69.396 13.0347Z" fill="white"/>
<path d="M71.4451 12.441C71.4451 11.0208 72.1751 10.1218 73.3106 10.1218C73.5915 10.1092 73.8701 10.1766 74.1142 10.3162C74.3582 10.4558 74.5576 10.6619 74.6891 10.9104H74.755V8.44092H75.6418V14.6897H74.7921V13.98H74.7216C74.5803 14.227 74.3741 14.4305 74.1254 14.5687C73.8767 14.7069 73.5949 14.7744 73.3106 14.7639C72.1677 14.7639 71.4451 13.864 71.4451 12.441ZM72.3616 12.441C72.3616 13.3946 72.8106 13.9679 73.562 13.9679C74.3134 13.9679 74.768 13.3863 74.768 12.4447C74.768 11.5031 74.3041 10.9178 73.562 10.9178C72.8199 10.9178 72.3616 11.4957 72.3616 12.441Z" fill="white"/>
<path d="M79.3127 12.441C79.2778 12.1419 79.3066 11.8389 79.3972 11.5518C79.4878 11.2647 79.6381 11 79.8382 10.7751C80.0384 10.5502 80.2839 10.3703 80.5586 10.247C80.8333 10.1238 81.1309 10.0601 81.432 10.0601C81.733 10.0601 82.0307 10.1238 82.3054 10.247C82.58 10.3703 82.8255 10.5502 83.0257 10.7751C83.2259 11 83.3762 11.2647 83.4668 11.5518C83.5573 11.8389 83.5861 12.1419 83.5512 12.441C83.5861 12.74 83.5573 13.043 83.4668 13.3302C83.3762 13.6173 83.2259 13.882 83.0257 14.1068C82.8255 14.3317 82.58 14.5117 82.3054 14.6349C82.0307 14.7582 81.733 14.8219 81.432 14.8219C81.1309 14.8219 80.8333 14.7582 80.5586 14.6349C80.2839 14.5117 80.0384 14.3317 79.8382 14.1068C79.6381 13.882 79.4878 13.6173 79.3972 13.3302C79.3066 13.043 79.2778 12.74 79.3127 12.441ZM82.6393 12.441C82.6393 11.4669 82.2015 10.8973 81.4334 10.8973C80.6653 10.8973 80.2274 11.4669 80.2274 12.441C80.2274 13.415 80.6615 13.9883 81.4334 13.9883C82.2052 13.9883 82.6393 13.4187 82.6393 12.441Z" fill="white"/>
<path d="M84.7412 10.1933H85.5947V10.9076H85.6605C85.773 10.6511 85.9626 10.4361 86.2031 10.2926C86.4436 10.1491 86.7228 10.0842 87.0019 10.107C87.2204 10.0906 87.4398 10.1236 87.6439 10.2035C87.8479 10.2833 88.0314 10.408 88.1808 10.5683C88.3301 10.7286 88.4415 10.9205 88.5068 11.1297C88.572 11.3388 88.5894 11.56 88.5576 11.7768V14.686H87.6708V11.9957C87.6708 11.2731 87.3572 10.9141 86.7014 10.9141C86.5528 10.9071 86.4046 10.9323 86.2667 10.988C86.1288 11.0437 86.0047 11.1286 85.9027 11.2368C85.8007 11.345 85.7234 11.474 85.676 11.615C85.6286 11.7559 85.6122 11.9054 85.6281 12.0532V14.6822H84.7412V10.1933Z" fill="white"/>
<path d="M93.5699 9.07642V10.2137H94.5439V10.9605H93.5699V13.275C93.5699 13.7454 93.7638 13.9522 94.2053 13.9522C94.3185 13.9519 94.4316 13.9451 94.5439 13.9318V14.6739C94.3847 14.7025 94.2233 14.7177 94.0616 14.7194C93.0755 14.7194 92.6821 14.3725 92.6821 13.506V10.9624H91.9688V10.2137H92.6821V9.07642H93.5699Z" fill="white"/>
<path d="M95.7509 8.44092H96.6303V10.9178H96.7008C96.8187 10.659 97.0135 10.4428 97.2587 10.2987C97.5039 10.1547 97.7875 10.0896 98.0709 10.1126C98.2883 10.1013 98.5056 10.1381 98.7072 10.2201C98.9088 10.3022 99.0899 10.4276 99.2376 10.5875C99.3854 10.7474 99.4961 10.9378 99.5621 11.1452C99.628 11.3527 99.6475 11.5721 99.6192 11.7879V14.6897H98.7314V12.0069C98.7314 11.2889 98.3975 10.9252 97.7704 10.9252C97.618 10.9127 97.4646 10.9337 97.3212 10.9866C97.1777 11.0396 97.0475 11.1232 96.9397 11.2317C96.8319 11.3402 96.7491 11.4709 96.6971 11.6148C96.6451 11.7586 96.6252 11.912 96.6386 12.0644V14.6897H95.7509V8.44092Z" fill="white"/>
<path d="M104.795 13.4762C104.674 13.8868 104.413 14.2418 104.057 14.4792C103.7 14.7166 103.272 14.8213 102.847 14.775C102.551 14.7828 102.256 14.7262 101.984 14.609C101.712 14.4917 101.469 14.3167 101.272 14.096C101.074 13.8754 100.927 13.6144 100.841 13.3311C100.754 13.0479 100.73 12.7492 100.771 12.4558C100.731 12.1614 100.755 11.8621 100.842 11.5779C100.928 11.2937 101.074 11.0314 101.271 10.8088C101.467 10.5861 101.71 10.4083 101.981 10.2874C102.252 10.1665 102.546 10.1052 102.843 10.1079C104.094 10.1079 104.848 10.9622 104.848 12.3732V12.6831H101.674V12.7332C101.66 12.8985 101.681 13.0648 101.735 13.2216C101.79 13.3783 101.876 13.5219 101.989 13.6432C102.103 13.7645 102.24 13.8608 102.393 13.9258C102.545 13.9908 102.71 14.0232 102.875 14.0208C103.088 14.0464 103.303 14.0083 103.493 13.9113C103.684 13.8143 103.841 13.6629 103.945 13.4762H104.795ZM101.675 12.0281H103.945C103.956 11.8773 103.936 11.7257 103.885 11.5833C103.834 11.4408 103.754 11.3106 103.65 11.2009C103.545 11.0913 103.419 11.0046 103.28 10.9466C103.14 10.8886 102.99 10.8604 102.838 10.8639C102.685 10.862 102.533 10.8909 102.391 10.9487C102.249 11.0066 102.12 11.0923 102.011 11.2008C101.903 11.3093 101.817 11.4384 101.76 11.5805C101.702 11.7226 101.673 11.8748 101.675 12.0281Z" fill="white"/>
</svg>
